<?xml version="1.0" encoding="UTF-8"?>
<svg id="Layer_1" data-name="Layer 1" xmlns="http://www.w3.org/2000/svg" viewBox="0 0 1080 1080">
  <defs>
    <style>
      .cls-1 {
        stroke-width: 0px;
      }
    </style>
  </defs>
  <path class="cls-1" d="M927.4,103.07L333.71,57.88c-68.8-5.23-129.05,46.48-134.29,115.29l-3.45,45.32h-33.88c-69.01,0-125.15,56.14-125.15,125.15v553.7c0,69.01,56.14,125.15,125.15,125.15h595.41c66.44,0,120.95-52.06,124.9-117.53,61.89-3.19,113.42-52.08,118.25-115.48l42.03-552.11c5.24-68.81-46.48-129.05-115.29-134.29ZM757.51,962.48H162.1c-35.92,0-65.15-29.23-65.15-65.15V343.63c0-35.92,29.23-65.15,65.15-65.15h595.41c35.92,0,65.14,29.23,65.14,65.15v553.7c0,35.92-29.22,65.15-65.14,65.15ZM982.86,232.81l-42.03,552.11c-2.43,31.85-27.48,56.66-58.19,59.86v-501.14c0-69.01-56.14-125.15-125.14-125.15h-501.36l3.1-40.76c2.73-35.82,34.08-62.75,69.91-60.01l593.69,45.19c35.82,2.73,62.74,34.09,60.02,69.91Z"/>
  <path class="cls-1" d="M582.98,590.48h-93.19v-93.19c0-16.57-13.43-30-30-30s-30,13.43-30,30v93.19h-93.19c-16.57,0-30,13.43-30,30h0c0,16.57,13.43,30,30,30h93.19v93.19c0,16.57,13.43,30,30,30s30-13.43,30-30v-93.19h93.19c16.57,0,30-13.43,30-30h0c0-16.57-13.43-30-30-30Z"/>
</svg>