<?xml version="1.0" encoding="utf-8"?>
<!-- Generator: Adobe Illustrator 28.2.0, SVG Export Plug-In . SVG Version: 6.00 Build 0)  -->
<svg version="1.1" id="Layer_1" xmlns="http://www.w3.org/2000/svg" xmlns:xlink="http://www.w3.org/1999/xlink" x="0px" y="0px"
	 viewBox="0 0 46 57" style="enable-background:new 0 0 46 57;" xml:space="preserve" fill="white">
<g>
	<path d="M8.4,35.1h20.1v0c0.1,0,0.2-0.1,0.2-0.2v-4.6c0-0.1-0.1-0.2-0.2-0.2H13.4c-0.8,0-1.4-0.6-1.4-1.4l0-11.2
		c0-0.6,0.5-1.1,1.1-1.1h25.6c0.1,0,0.3-0.1,0.3-0.3v-4.9c0-0.1-0.1-0.3-0.3-0.3L8.1,6.5C7.5,6.5,7,7,7,7.7v26.1
		C7,34.5,7.6,35.1,8.4,35.1z"/>
	<path d="M37.7,50.5C37.7,50.5,37.7,50.5,37.7,50.5L37.7,50.5c0.7,0,1.3-0.6,1.3-1.3V22.7c0-0.8-0.6-1.4-1.4-1.4H16.9
		c-0.1,0-0.2,0.1-0.2,0.2v4.6c0,0.1,0.1,0.2,0.2,0.2h15.9c0.7,0,1.2,0.5,1.2,1.2L34,39.1c0,0.7-0.6,1.3-1.3,1.3H7.5
		c-0.3,0-0.5,0.2-0.5,0.5v4.8C7,45.8,7.1,46,7.3,46L37.7,50.5z"/>
</g>
</svg>
