<svg width="3002" height="2874" viewBox="0 0 3002 2874" fill="white" xmlns="http://www.w3.org/2000/svg">
<path d="M1321.46 108.297C1397.62 -36.0659 1604.38 -36.066 1680.54 108.297L2004.28 721.899C2033.66 777.57 2087.19 816.467 2149.22 827.199L2832.83 945.481C2993.66 973.309 3057.55 1169.94 2943.79 1286.99L2460.26 1784.5C2416.39 1829.64 2395.94 1892.57 2404.9 1954.88L2503.66 2641.58C2526.89 2803.14 2359.63 2924.67 2213.15 2852.65L1590.57 2546.52C1534.09 2518.75 1467.91 2518.75 1411.43 2546.52L788.849 2852.65C642.375 2924.67 475.108 2803.14 498.343 2641.58L597.097 1954.88C606.057 1892.57 585.608 1829.64 541.738 1784.5L58.2091 1286.99C-55.5512 1169.94 8.33862 973.309 169.173 945.481L852.784 827.199C914.807 816.467 968.344 777.57 997.717 721.899L1321.46 108.297Z" fill=""/>
</svg>
