<svg width="15" height="15" viewBox="0 0 15 15" fill="red" xmlns="http://www.w3.org/2000/svg">
<path d="M14.8817 5.65125C14.7569 5.27725 14.4413 5.00897 14.0588 4.95053L10.1759 4.36881L8.42808 0.658562C8.25436 0.290937 7.89896 0.0625 7.49999 0.0625C7.10102 0.0625 6.74561 0.290937 6.57189 0.658562L4.84958 4.35553L0.941175 4.95053C0.558675 5.00897 0.243644 5.27725 0.118269 5.65125C-0.00976236 6.03534 0.0848001 6.45184 0.3653 6.73819L3.19208 9.63137L2.5243 13.7092C2.45789 14.1167 2.62258 14.5157 2.95514 14.75C3.27496 14.9768 3.68614 14.9991 4.02827 14.8105L7.47555 12.8853L10.9717 14.8105C11.3149 14.9991 11.725 14.9757 12.0448 14.75C12.3774 14.5157 12.5426 14.1167 12.4757 13.7092L11.8068 9.62606L14.6347 6.73819C14.9152 6.45184 15.0097 6.03534 14.8817 5.65125Z" fill=""/>
</svg>
